<?xml version="1.0" encoding="UTF-8"?>
<svg xmlns="http://www.w3.org/2000/svg" xmlns:xlink="http://www.w3.org/1999/xlink" width="980pt" height="980pt" viewBox="0 0 980 980" version="1.1">
<g id="surface1">
<path style=" stroke:none;fill-rule:nonzero;fill:transparent;fill-opacity:1;" d="M 0 0 L 980 0 L 980 980 L 0 980 L 0 0 M 478.25 65.480469 C 422.628906 67.308594 366.871094 78.539063 316.308594 102.230469 C 297.320313 111.03125 279.269531 121.660156 261.410156 132.53125 C 252.058594 139.109375 242.441406 145.308594 233.378906 152.289063 C 206.820313 172.878906 182.558594 196.488281 161.800781 222.929688 C 142.28125 247.179688 124.839844 273.261719 111.25 301.308594 C 100.769531 322.390625 91.738281 344.191406 84.539063 366.609375 C 76.128906 393.789063 70.160156 421.761719 66.949219 450.039063 C 63.121094 482.910156 62.820313 516.28125 67.398438 549.101563 C 69.878906 572.410156 75.121094 595.328125 81.148438 617.941406 C 86.570313 637 93.539063 655.589844 101.191406 673.851563 C 115.371094 704.609375 132.691406 733.960938 153.191406 760.929688 C 176.601563 789.921875 202.730469 817 232.71875 839.25 C 262.238281 861.550781 294.730469 879.789063 328.738281 894.300781 C 347.78125 901.589844 367.089844 908.359375 387.03125 912.761719 C 402.800781 916.75 418.800781 919.878906 434.949219 921.917969 C 471.019531 926.789063 507.71875 927.609375 543.890625 923.210938 C 571.609375 920.871094 598.828125 914.519531 625.421875 906.519531 C 638.789063 902.769531 651.769531 897.789063 664.570313 892.441406 C 687.460938 882.730469 709.640625 871.210938 730.398438 857.488281 C 751.210938 844.429688 770.730469 829.378906 788.820313 812.75 C 801.679688 801.308594 813.960938 789.128906 825.121094 776 C 833.988281 765.21875 842.988281 754.519531 850.820313 742.941406 C 862.429688 725.800781 873.429688 708.171875 882.601563 689.578125 C 894.21875 664.929688 903.910156 639.308594 910.730469 612.921875 C 914.039063 602.160156 915.820313 591.019531 918.25 580.039063 C 921.199219 566.488281 922.511719 552.671875 924.058594 538.910156 C 925.660156 521.328125 926.71875 503.679688 925.898438 486.03125 C 924.519531 451.949219 919.75 417.980469 911.171875 384.960938 C 902.410156 352.308594 889.769531 320.75 874.339844 290.699219 C 855.578125 256.199219 832.691406 223.820313 805.449219 195.488281 C 792.449219 181.488281 778.730469 168.078125 763.539063 156.449219 C 735.320313 133.558594 703.738281 114.929688 670.421875 100.480469 C 632.378906 82.929688 591.070313 73.761719 549.691406 68.421875 C 526.011719 65.441406 502.089844 64.988281 478.25 65.480469 "/>
<path style=" stroke:none;fill-rule:nonzero;fill:rgb(89.84375%,89.84375%,91.014099%);fill-opacity:1;" d="M 478.25 65.480469 C 502.089844 64.988281 526.011719 65.441406 549.691406 68.421875 C 591.070313 73.761719 632.378906 82.929688 670.421875 100.480469 C 703.738281 114.929688 735.320313 133.558594 763.539063 156.449219 C 778.730469 168.078125 792.449219 181.488281 805.449219 195.488281 C 832.691406 223.820313 855.578125 256.199219 874.339844 290.699219 C 889.769531 320.75 902.410156 352.308594 911.171875 384.960938 C 919.75 417.980469 924.519531 451.949219 925.898438 486.03125 C 926.71875 503.679688 925.660156 521.328125 924.058594 538.910156 C 922.511719 552.671875 921.199219 566.488281 918.25 580.039063 C 915.820313 591.019531 914.039063 602.160156 910.730469 612.921875 C 903.910156 639.308594 894.21875 664.929688 882.601563 689.578125 C 873.429688 708.171875 862.429688 725.800781 850.820313 742.941406 C 842.988281 754.519531 833.988281 765.21875 825.121094 776 C 813.960938 789.128906 801.679688 801.308594 788.820313 812.75 C 770.730469 829.378906 751.210938 844.429688 730.398438 857.488281 C 709.640625 871.210938 687.460938 882.730469 664.570313 892.441406 C 651.769531 897.789063 638.789063 902.769531 625.421875 906.519531 C 598.828125 914.519531 571.609375 920.871094 543.890625 923.210938 C 507.71875 927.609375 471.019531 926.789063 434.949219 921.917969 C 418.800781 919.878906 402.800781 916.75 387.03125 912.761719 C 367.089844 908.359375 347.78125 901.589844 328.738281 894.300781 C 294.730469 879.789063 262.238281 861.550781 232.71875 839.25 C 202.730469 817 176.601563 789.921875 153.191406 760.929688 C 132.691406 733.960938 115.371094 704.609375 101.191406 673.851563 C 93.539063 655.589844 86.570313 637 81.148438 617.941406 C 75.121094 595.328125 69.878906 572.410156 67.398438 549.101563 C 62.820313 516.28125 63.121094 482.910156 66.949219 450.039063 C 70.160156 421.761719 76.128906 393.789063 84.539063 366.609375 C 91.738281 344.191406 100.769531 322.390625 111.25 301.308594 C 124.839844 273.261719 142.28125 247.179688 161.800781 222.929688 C 182.558594 196.488281 206.820313 172.878906 233.378906 152.289063 C 242.441406 145.308594 252.058594 139.109375 261.410156 132.53125 C 279.269531 121.660156 297.320313 111.03125 316.308594 102.230469 C 366.871094 78.539063 422.628906 67.308594 478.25 65.480469 M 420.191406 185.230469 C 378.019531 196.710938 340.628906 220.148438 303.550781 242.5 C 311.609375 256.328125 318.691406 270.738281 327.160156 284.320313 C 325.53125 289.878906 323.308594 295.269531 322.148438 300.960938 C 319.039063 315.070313 319.398438 329.628906 320.109375 343.96875 C 321.019531 354.71875 321.910156 365.539063 324.441406 376.058594 C 324.410156 376.578125 324.359375 377.628906 324.328125 378.148438 C 319.890625 379.449219 315.53125 381.191406 311.828125 384.03125 C 303.480469 389.730469 300.109375 400.300781 299.679688 409.96875 C 300.851563 415.570313 300.230469 421.328125 301.339844 426.929688 C 304.019531 445.011719 308.859375 462.859375 316.769531 479.378906 C 320.46875 486.398438 324.03125 493.648438 329.359375 499.621094 C 334.308594 505.191406 341.96875 508.738281 349.480469 507.300781 C 352.070313 512.558594 351.761719 518.648438 352.710938 524.328125 C 355.53125 541.039063 358 557.820313 361.738281 574.359375 C 362.21875 577.210938 364.011719 579.519531 365.269531 582.050781 C 366.441406 585.921875 366.671875 589.988281 366.550781 594.019531 C 366.679688 605.359375 366.609375 616.699219 366.71875 628.039063 C 368.050781 636.96875 367.148438 646.050781 367.410156 655.050781 C 367.109375 661.289063 368.320313 667.761719 366.121094 673.761719 C 354.359375 684.421875 343.109375 695.679688 331.300781 706.300781 C 327.648438 709.730469 323.308594 712.429688 318.390625 713.570313 C 294.539063 721.808594 270.421875 729.238281 246.570313 737.480469 C 225.769531 744.550781 204.800781 751.101563 184.070313 758.398438 C 184.289063 759.539063 184.429688 760.761719 185.199219 761.710938 C 188.300781 766.21875 192.011719 770.261719 195.589844 774.378906 C 208.738281 788.609375 222.660156 802.191406 237.878906 814.199219 C 251.640625 824.46875 265.421875 834.78125 280.019531 843.859375 C 298.660156 855.058594 317.851563 865.460938 337.96875 873.789063 C 338.128906 873.390625 338.429688 872.589844 338.589844 872.199219 C 338.5 872.640625 338.308594 873.539063 338.21875 873.980469 C 359.210938 882.25 380.550781 889.890625 402.699219 894.429688 C 421.578125 898.238281 440.691406 900.898438 459.878906 902.417969 C 472.148438 902.800781 484.398438 903.539063 496.679688 903.230469 C 531.839844 902.699219 567.070313 898.488281 601.039063 889.230469 C 613.25 885.558594 625.621094 882.28125 637.480469 877.558594 C 672.71875 864.089844 706.128906 845.878906 736.550781 823.558594 C 755.539063 809.78125 772.921875 793.898438 789.191406 777.039063 C 794.480469 770.769531 801.378906 765.710938 805.28125 758.378906 C 758.949219 742.679688 711.851563 729.210938 666.03125 712.070313 C 651.71875 699.691406 638.140625 686.390625 623.558594 674.308594 C 622.691406 662.898438 623.820313 651.410156 622.820313 640.011719 C 624.039063 630.351563 621.820313 620.660156 623.171875 611 C 622.308594 602.308594 624.140625 593.558594 622.820313 584.921875 C 624.730469 582.78125 627.25 580.960938 628.179688 578.140625 C 630.5 571.640625 631.460938 564.769531 633.160156 558.101563 C 637.390625 541.441406 639.238281 524.230469 643.800781 507.660156 C 647.699219 507.378906 652.511719 506.808594 655.019531 503.488281 C 661.550781 499.699219 666 493.25 669.75 486.859375 C 672.089844 485.871094 672.800781 483.25 673.898438 481.191406 C 676.289063 475.738281 679.210938 470.539063 682.011719 465.289063 C 686.609375 453.589844 690.589844 441.550781 692.21875 429.050781 C 692.148438 424.628906 693.621094 420.371094 693.390625 415.949219 C 693.28125 409.820313 694.078125 403.480469 691.921875 397.589844 C 689.78125 391.601563 686.480469 385.558594 680.808594 382.261719 C 677.199219 379.640625 672.601563 379.289063 668.609375 377.488281 C 668.359375 376.308594 668.109375 375.128906 667.871094 373.960938 C 670.949219 353.140625 672.761719 332.050781 671.71875 311 C 671.011719 298.980469 669.390625 286.78125 664.210938 275.78125 C 658.21875 261.378906 648.570313 248.148438 635.238281 239.761719 C 621.640625 231.269531 605.390625 227.429688 589.460938 227.710938 C 576.140625 211.550781 559.101563 198.101563 539.460938 190.480469 C 501.640625 175.558594 459.320313 175.808594 420.191406 185.230469 M 366.148438 691.988281 C 376.410156 697.710938 385.328125 705.46875 394.660156 712.539063 C 410.828125 723.878906 426.179688 736.351563 442.25 747.828125 C 452.640625 755.53125 463.558594 762.46875 473.808594 770.359375 C 481.898438 775.519531 489.648438 781.179688 497.640625 786.5 C 497.429688 810.660156 497.589844 834.828125 497.5 858.988281 C 497.609375 865.339844 497.140625 871.699219 497.71875 878.03125 C 498.28125 882.210938 497.019531 886.359375 497.289063 890.550781 C 495.480469 889.832031 493.589844 889.351563 491.660156 889.191406 C 487.199219 876.039063 481.21875 863.460938 476.578125 850.378906 C 475.949219 848.511719 474.601563 847.039063 473.039063 845.910156 C 452.980469 830.71875 433.578125 814.691406 413.640625 799.351563 C 397.800781 786.910156 382.308594 774.039063 366.308594 761.808594 C 366.339844 738.539063 366.460938 715.261719 366.148438 691.988281 "/>
<path style=" stroke:none;fill-rule:nonzero;fill:rgb(32.542419%,32.93457%,32.151794%);fill-opacity:1;" d="M 420.191406 185.230469 C 459.320313 175.808594 501.640625 175.558594 539.460938 190.480469 C 559.101563 198.101563 576.140625 211.550781 589.460938 227.710938 C 605.390625 227.429688 621.640625 231.269531 635.238281 239.761719 C 648.570313 248.148438 658.21875 261.378906 664.210938 275.78125 C 669.390625 286.78125 671.011719 298.980469 671.71875 311 C 672.761719 332.050781 670.949219 353.140625 667.871094 373.960938 C 667.398438 375.878906 666.730469 377.738281 666.191406 379.648438 C 659.328125 400.5 650.621094 420.679688 643.121094 441.300781 C 641.75 445.269531 640.300781 449.21875 638.640625 453.078125 C 636.191406 452.539063 633.679688 450.738281 633.75 447.988281 C 633.320313 435.648438 634.769531 423.359375 635.789063 411.078125 C 636.941406 395.351563 638.71875 379.660156 639.21875 363.890625 C 640.429688 350.21875 638.851563 335.941406 632.429688 323.628906 C 624.121094 306.660156 607.78125 294.121094 589.539063 289.558594 C 580.949219 287.390625 571.78125 287.039063 563.191406 289.449219 C 553.058594 292.128906 544.011719 297.578125 534.351563 301.480469 C 525.179688 305.441406 515.640625 308.601563 505.878906 310.730469 C 486.03125 314.328125 465.621094 311.210938 446.46875 305.511719 C 437.96875 302.808594 429.449219 300.148438 421.121094 296.949219 C 412.871094 293.980469 403.941406 291.820313 395.160156 293.449219 C 377.78125 296.71875 361.859375 308.828125 355.601563 325.589844 C 350.949219 337.5 351.890625 350.480469 351.820313 362.988281 C 352.398438 390.699219 355.441406 418.289063 356.800781 445.96875 C 357.378906 449.070313 355.089844 451.410156 352.429688 452.480469 L 352.359375 452.140625 C 350.171875 444.28125 346.550781 436.910156 344.019531 429.160156 C 338.128906 412.308594 331.199219 395.839844 325.300781 379 C 324.988281 378.019531 324.699219 377.039063 324.441406 376.058594 C 321.910156 365.539063 321.019531 354.71875 320.109375 343.96875 C 319.398438 329.628906 319.039063 315.070313 322.148438 300.960938 C 323.308594 295.269531 325.53125 289.878906 327.160156 284.320313 C 318.691406 270.738281 311.609375 256.328125 303.550781 242.5 C 340.628906 220.148438 378.019531 196.710938 420.191406 185.230469 "/>
<path style=" stroke:none;fill-rule:nonzero;fill:rgb(96.875%,75.389099%,43.920898%);fill-opacity:1;" d="M 563.191406 289.449219 C 571.78125 287.039063 580.949219 287.390625 589.539063 289.558594 C 607.78125 294.121094 624.121094 306.660156 632.429688 323.628906 C 638.851563 335.941406 640.429688 350.21875 639.21875 363.890625 C 638.71875 379.660156 636.941406 395.351563 635.789063 411.078125 C 634.769531 423.359375 633.320313 435.648438 633.75 447.988281 C 633.679688 450.738281 636.191406 452.539063 638.640625 453.078125 L 639.820313 452.71875 C 637.621094 455.710938 638.640625 459.558594 638.859375 462.960938 C 639.910156 469.601563 639.121094 476.359375 640.089844 483.011719 C 640.769531 490.851563 640.660156 498.851563 642.558594 506.539063 C 646.160156 506.761719 649.621094 505.75 652.851563 504.25 C 653.390625 504.058594 654.46875 503.679688 655.019531 503.488281 C 652.511719 506.808594 647.699219 507.378906 643.800781 507.660156 C 639.238281 524.230469 637.390625 541.441406 633.160156 558.101563 C 631.460938 564.769531 630.5 571.640625 628.179688 578.140625 C 627.25 580.960938 624.730469 582.78125 622.820313 584.921875 C 603.71875 604.160156 585.230469 624.089844 564.589844 641.71875 C 559.820313 645.921875 554.039063 648.671875 548.320313 651.300781 C 538.238281 656.011719 527.070313 657.441406 516.199219 659.191406 C 505.351563 661.03125 494.308594 660.78125 483.351563 660.449219 C 472.789063 659.511719 462.359375 657.421875 452.058594 654.921875 C 443.570313 652.800781 435.460938 648.96875 428.75 643.300781 C 414.390625 631.039063 400.789063 617.910156 387.738281 604.269531 C 380.738281 597.300781 374.351563 589.730469 367.019531 583.101563 C 368.558594 587.550781 371.269531 591.429688 373.851563 595.339844 C 385 611.769531 396.148438 628.191406 407.089844 644.761719 C 416.558594 658.5 425.03125 672.890625 434.261719 686.789063 C 446.511719 705.558594 458.101563 724.75 470.230469 743.589844 C 477.761719 755.101563 484.851563 766.890625 492.460938 778.351563 C 493.570313 780.03125 494.648438 781.769531 496.089844 783.210938 C 498.679688 784.648438 501 782.511719 503 781.089844 C 518.03125 769.699219 533.539063 758.960938 548.851563 747.949219 C 553.820313 744.320313 559.140625 741.121094 563.621094 736.851563 C 564.28125 736.761719 565.609375 736.570313 566.269531 736.46875 C 564.019531 738.808594 561.488281 740.871094 558.800781 742.699219 C 543.140625 754.101563 527.140625 765.03125 511.589844 776.589844 C 506.929688 779.878906 502.671875 783.738281 497.640625 786.5 C 489.648438 781.179688 481.898438 775.519531 473.808594 770.359375 C 463.558594 762.46875 452.640625 755.53125 442.25 747.828125 C 426.179688 736.351563 410.828125 723.878906 394.660156 712.539063 C 385.328125 705.46875 376.410156 697.710938 366.148438 691.988281 C 366.140625 685.910156 365.691406 679.820313 366.121094 673.761719 C 368.320313 667.761719 367.109375 661.289063 367.410156 655.050781 C 367.148438 646.050781 368.050781 636.96875 366.71875 628.039063 C 366.609375 616.699219 366.679688 605.359375 366.550781 594.019531 C 366.671875 589.988281 366.441406 585.921875 365.269531 582.050781 C 364.011719 579.519531 362.21875 577.210938 361.738281 574.359375 C 358 557.820313 355.53125 541.039063 352.710938 524.328125 C 351.761719 518.648438 352.070313 512.558594 349.480469 507.300781 C 341.96875 508.738281 334.308594 505.191406 329.359375 499.621094 C 324.03125 493.648438 320.46875 486.398438 316.769531 479.378906 C 308.859375 462.859375 304.019531 445.011719 301.339844 426.929688 C 300.230469 421.328125 300.851563 415.570313 299.679688 409.96875 C 300.109375 400.300781 303.480469 389.730469 311.828125 384.03125 C 315.53125 381.191406 319.890625 379.449219 324.328125 378.148438 C 324.359375 377.628906 324.410156 376.578125 324.441406 376.058594 C 324.699219 377.039063 324.988281 378.019531 325.300781 379 C 318.238281 381.121094 310.679688 384.230469 306.960938 391.03125 C 301.199219 398.851563 302.269531 408.910156 302.351563 418.03125 C 304.121094 443.660156 311.449219 469.121094 324.859375 491.121094 C 328.851563 497.449219 334.179688 503.691406 341.789063 505.449219 C 344.179688 505.859375 348.28125 506.199219 348.421875 502.789063 C 350.359375 486.078125 350.648438 469.210938 352.429688 452.480469 C 355.089844 451.410156 357.378906 449.070313 356.800781 445.96875 C 355.441406 418.289063 352.398438 390.699219 351.820313 362.988281 C 351.890625 350.480469 350.949219 337.5 355.601563 325.589844 C 361.859375 308.828125 377.78125 296.71875 395.160156 293.449219 C 403.941406 291.820313 412.871094 293.980469 421.121094 296.949219 C 429.449219 300.148438 437.96875 302.808594 446.46875 305.511719 C 465.621094 311.210938 486.03125 314.328125 505.878906 310.730469 C 515.640625 308.601563 525.179688 305.441406 534.351563 301.480469 C 544.011719 297.578125 553.058594 292.128906 563.191406 289.449219 "/>
<path style=" stroke:none;fill-rule:nonzero;fill:rgb(72.459412%,72.851563%,72.851563%);fill-opacity:1;" d="M 666.191406 379.648438 C 666.730469 377.738281 667.398438 375.878906 667.871094 373.960938 C 668.109375 375.128906 668.359375 376.308594 668.609375 377.488281 C 672.601563 379.289063 677.199219 379.640625 680.808594 382.261719 C 686.480469 385.558594 689.78125 391.601563 691.921875 397.589844 C 694.078125 403.480469 693.28125 409.820313 693.390625 415.949219 C 693.621094 420.371094 692.148438 424.628906 692.21875 429.050781 C 690.589844 441.550781 686.609375 453.589844 682.011719 465.289063 C 679.210938 470.539063 676.289063 475.738281 673.898438 481.191406 C 672.800781 483.25 672.089844 485.871094 669.75 486.859375 C 674.269531 478.53125 678.621094 470.078125 682.25 461.320313 C 687.378906 446.75 691.761719 431.601563 691.78125 416.03125 C 691.960938 407.160156 692.628906 397.410156 687.109375 389.828125 C 683.03125 383.28125 675.589844 380.199219 668.371094 378.578125 C 667.640625 378.941406 666.910156 379.289063 666.191406 379.648438 M 599.640625 711.710938 C 607.878906 705.910156 616.28125 700.308594 624.25 694.140625 C 624.191406 717.691406 624.890625 741.261719 624.199219 764.800781 C 619.539063 767.859375 615.421875 771.609375 611.03125 775.019531 C 580.5 798.871094 550.128906 822.929688 518.789063 845.71875 C 516.511719 847.351563 515.519531 850.070313 514.640625 852.621094 C 511.449219 862.289063 507.398438 871.660156 504.378906 881.398438 C 501.960938 888.621094 500 896.03125 496.78125 902.960938 C 494.878906 898.441406 492.789063 893.980469 491.660156 889.191406 C 493.589844 889.351563 495.480469 889.832031 497.289063 890.550781 C 497.019531 886.359375 498.28125 882.210938 497.71875 878.03125 C 497.140625 871.699219 497.609375 865.339844 497.5 858.988281 C 497.589844 834.828125 497.429688 810.660156 497.640625 786.5 C 502.671875 783.738281 506.929688 779.878906 511.589844 776.589844 C 527.140625 765.03125 543.140625 754.101563 558.800781 742.699219 C 561.488281 740.871094 564.019531 738.808594 566.269531 736.46875 C 571.929688 731.800781 578.488281 728.320313 583.890625 723.320313 C 589.21875 719.558594 594.429688 715.628906 599.640625 711.710938 "/>
<path style=" stroke:none;fill-rule:nonzero;fill:rgb(75.389099%,46.655273%,14.892578%);fill-opacity:1;" d="M 306.960938 391.03125 C 310.679688 384.230469 318.238281 381.121094 325.300781 379 C 331.199219 395.839844 338.128906 412.308594 344.019531 429.160156 C 346.550781 436.910156 350.171875 444.28125 352.359375 452.140625 C 349.261719 450.269531 348.980469 446.410156 347.769531 443.339844 C 340.03125 422.53125 332.371094 401.671875 323.898438 381.160156 C 317.039063 381.679688 311.5 386.25 306.960938 391.03125 M 666.191406 379.648438 C 666.910156 379.289063 667.640625 378.941406 668.371094 378.578125 C 675.589844 380.199219 683.03125 383.28125 687.109375 389.828125 C 692.628906 397.410156 691.960938 407.160156 691.78125 416.03125 C 691.761719 431.601563 687.378906 446.75 682.25 461.320313 C 678.621094 470.078125 674.269531 478.53125 669.75 486.859375 C 666 493.25 661.550781 499.699219 655.019531 503.488281 C 654.46875 503.679688 653.390625 504.058594 652.851563 504.25 C 657.511719 500.75 661.269531 496.261719 665.800781 492.628906 C 667.820313 486.75 671.71875 481.808594 674.21875 476.160156 C 677.058594 469.890625 680.691406 463.929688 682.480469 457.230469 C 684.761719 448.828125 687.859375 440.621094 689.269531 432.011719 C 689.679688 424.351563 690.871094 416.738281 690.578125 409.039063 C 690.988281 401.78125 689.601563 393.949219 684.539063 388.429688 C 681.101563 384.320313 676.050781 381.460938 670.648438 381.238281 C 668.21875 380.949219 667.070313 383.511719 666.070313 385.25 C 662.960938 391.519531 661.28125 398.359375 658.609375 404.808594 C 654.808594 414.089844 651.660156 423.628906 647.648438 432.828125 C 644.789063 439.359375 643.449219 446.539063 639.820313 452.71875 L 638.640625 453.078125 C 640.300781 449.21875 641.75 445.269531 643.121094 441.300781 C 650.621094 420.679688 659.328125 400.5 666.191406 379.648438 M 331.300781 706.300781 C 343.109375 695.679688 354.359375 684.421875 366.121094 673.761719 C 365.691406 679.820313 366.140625 685.910156 366.148438 691.988281 C 366.460938 715.261719 366.339844 738.539063 366.308594 761.808594 C 382.308594 774.039063 397.800781 786.910156 413.640625 799.351563 C 433.578125 814.691406 452.980469 830.71875 473.039063 845.910156 C 474.601563 847.039063 475.949219 848.511719 476.578125 850.378906 C 481.21875 863.460938 487.199219 876.039063 491.660156 889.191406 C 492.789063 893.980469 494.878906 898.441406 496.78125 902.960938 L 496.679688 903.230469 C 484.398438 903.539063 472.148438 902.800781 459.878906 902.417969 C 440.691406 900.898438 421.578125 898.238281 402.699219 894.429688 C 380.550781 889.890625 359.210938 882.25 338.21875 873.980469 C 338.308594 873.539063 338.5 872.640625 338.589844 872.199219 C 338.429688 872.589844 338.128906 873.390625 337.96875 873.789063 C 317.851563 865.460938 298.660156 855.058594 280.019531 843.859375 C 265.421875 834.78125 251.640625 824.46875 237.878906 814.199219 C 222.660156 802.191406 208.738281 788.609375 195.589844 774.378906 C 192.011719 770.261719 188.300781 766.21875 185.199219 761.710938 C 184.429688 760.761719 184.289063 759.539063 184.070313 758.398438 C 204.800781 751.101563 225.769531 744.550781 246.570313 737.480469 C 270.421875 729.238281 294.539063 721.808594 318.390625 713.570313 C 323.308594 712.429688 327.648438 709.730469 331.300781 706.300781 M 563.621094 736.851563 C 569.128906 730.820313 575.828125 725.378906 583.890625 723.320313 C 578.488281 728.320313 571.929688 731.800781 566.269531 736.46875 C 565.609375 736.570313 564.28125 736.761719 563.621094 736.851563 "/>
<path style=" stroke:none;fill-rule:nonzero;fill:rgb(97.264099%,56.054688%,0.392151%);fill-opacity:1;" d="M 306.960938 391.03125 C 311.5 386.25 317.039063 381.679688 323.898438 381.160156 C 332.371094 401.671875 340.03125 422.53125 347.769531 443.339844 C 348.980469 446.410156 349.261719 450.269531 352.359375 452.140625 L 352.429688 452.480469 C 350.648438 469.210938 350.359375 486.078125 348.421875 502.789063 C 348.28125 506.199219 344.179688 505.859375 341.789063 505.449219 C 334.179688 503.691406 328.851563 497.449219 324.859375 491.121094 C 311.449219 469.121094 304.121094 443.660156 302.351563 418.03125 C 302.269531 408.910156 301.199219 398.851563 306.960938 391.03125 M 666.070313 385.25 C 667.070313 383.511719 668.21875 380.949219 670.648438 381.238281 C 676.050781 381.460938 681.101563 384.320313 684.539063 388.429688 C 689.601563 393.949219 690.988281 401.78125 690.578125 409.039063 C 690.871094 416.738281 689.679688 424.351563 689.269531 432.011719 C 687.859375 440.621094 684.761719 448.828125 682.480469 457.230469 C 680.691406 463.929688 677.058594 469.890625 674.21875 476.160156 C 671.71875 481.808594 667.820313 486.75 665.800781 492.628906 C 661.269531 496.261719 657.511719 500.75 652.851563 504.25 C 649.621094 505.75 646.160156 506.761719 642.558594 506.539063 C 640.660156 498.851563 640.769531 490.851563 640.089844 483.011719 C 639.121094 476.359375 639.910156 469.601563 638.859375 462.960938 C 638.640625 459.558594 637.621094 455.710938 639.820313 452.71875 C 643.449219 446.539063 644.789063 439.359375 647.648438 432.828125 C 651.660156 423.628906 654.808594 414.089844 658.609375 404.808594 C 661.28125 398.359375 662.960938 391.519531 666.070313 385.25 M 367.019531 583.101563 C 374.351563 589.730469 380.738281 597.300781 387.738281 604.269531 C 400.789063 617.910156 414.390625 631.039063 428.75 643.300781 C 435.460938 648.96875 443.570313 652.800781 452.058594 654.921875 C 462.359375 657.421875 472.789063 659.511719 483.351563 660.449219 C 494.308594 660.78125 505.351563 661.03125 516.199219 659.191406 C 527.070313 657.441406 538.238281 656.011719 548.320313 651.300781 C 554.039063 648.671875 559.820313 645.921875 564.589844 641.71875 C 585.230469 624.089844 603.71875 604.160156 622.820313 584.921875 C 624.140625 593.558594 622.308594 602.308594 623.171875 611 C 621.820313 620.660156 624.039063 630.351563 622.820313 640.011719 C 623.820313 651.410156 622.691406 662.898438 623.558594 674.308594 C 624.601563 680.871094 624.210938 687.519531 624.25 694.140625 C 616.28125 700.308594 607.878906 705.910156 599.640625 711.710938 C 594.429688 715.628906 589.21875 719.558594 583.890625 723.320313 C 575.828125 725.378906 569.128906 730.820313 563.621094 736.851563 C 559.140625 741.121094 553.820313 744.320313 548.851563 747.949219 C 533.539063 758.960938 518.03125 769.699219 503 781.089844 C 501 782.511719 498.679688 784.648438 496.089844 783.210938 C 494.648438 781.769531 493.570313 780.03125 492.460938 778.351563 C 484.851563 766.890625 477.761719 755.101563 470.230469 743.589844 C 458.101563 724.75 446.511719 705.558594 434.261719 686.789063 C 425.03125 672.890625 416.558594 658.5 407.089844 644.761719 C 396.148438 628.191406 385 611.769531 373.851563 595.339844 C 371.269531 591.429688 368.558594 587.550781 367.019531 583.101563 "/>
<path style=" stroke:none;fill-rule:nonzero;fill:rgb(21.166992%,17.259216%,18.431091%);fill-opacity:1;" d="M 623.558594 674.308594 C 638.140625 686.390625 651.71875 699.691406 666.03125 712.070313 C 711.851563 729.210938 758.949219 742.679688 805.28125 758.378906 C 801.378906 765.710938 794.480469 770.769531 789.191406 777.039063 C 772.921875 793.898438 755.539063 809.78125 736.550781 823.558594 C 706.128906 845.878906 672.71875 864.089844 637.480469 877.558594 C 625.621094 882.28125 613.25 885.558594 601.039063 889.230469 C 567.070313 898.488281 531.839844 902.699219 496.679688 903.230469 L 496.78125 902.960938 C 500 896.03125 501.960938 888.621094 504.378906 881.398438 C 507.398438 871.660156 511.449219 862.289063 514.640625 852.621094 C 515.519531 850.070313 516.511719 847.351563 518.789063 845.71875 C 550.128906 822.929688 580.5 798.871094 611.03125 775.019531 C 615.421875 771.609375 619.539063 767.859375 624.199219 764.800781 C 624.890625 741.261719 624.191406 717.691406 624.25 694.140625 C 624.210938 687.519531 624.601563 680.871094 623.558594 674.308594 "/>
</g>
</svg>
