<!DOCTYPE svg PUBLIC "-//W3C//DTD SVG 1.1//EN" "http://www.w3.org/Graphics/SVG/1.1/DTD/svg11.dtd">
<!-- Uploaded to: SVG Repo, www.svgrepo.com, Transformed by: SVG Repo Mixer Tools -->
<svg version="1.1" id="Layer_1" xmlns="http://www.w3.org/2000/svg" xmlns:xlink="http://www.w3.org/1999/xlink" viewBox="0 0 512 512" xml:space="preserve" width="64px" height="64px" fill="#000000" transform="matrix(1, 0, 0, 1, 0, 0)rotate(45)">
<g id="SVGRepo_bgCarrier" stroke-width="0"/>
<g id="SVGRepo_tracerCarrier" stroke-linecap="round" stroke-linejoin="round"/>
<g id="SVGRepo_iconCarrier"> <path d="M503.467,34.133H8.533C3.84,34.133,0,37.973,0,42.667v426.667c0,4.693,3.84,8.533,8.533,8.533h494.933 c4.693,0,8.533-3.84,8.533-8.533V42.667C512,37.973,508.16,34.133,503.467,34.133z M349.867,85.333h60.245 c3.584,26.965,23.723,47.104,50.688,50.688v103.424c-26.965,3.584-47.104,23.723-50.688,50.688h-60.245V85.333z M162.133,460.8 H17.067v-17.067h145.067V460.8z M162.133,426.667H17.067V409.6h145.067V426.667z M162.133,392.533H17.067v-17.067h145.067V392.533z M162.133,358.4H17.067v-17.067h145.067V358.4z M162.133,290.133h-60.245c-3.584-26.965-23.723-47.104-50.688-50.688V136.021 c26.965-3.584,47.104-23.723,50.688-50.688h60.245V290.133z M162.133,68.267H93.867c-4.693,0-8.533,3.84-8.533,8.533 c0,24.747-17.92,42.667-42.667,42.667c-4.693,0-8.533,3.84-8.533,8.533v119.467c0,4.693,3.84,8.533,8.533,8.533 c24.747,0,42.667,17.92,42.667,42.667c0,4.693,3.84,8.533,8.533,8.533h68.267v17.067H17.067V51.2h145.067V68.267z M332.8,460.8 H179.2V341.333h153.6V460.8z M332.8,324.267H179.2V51.2h153.6V324.267z M494.933,460.8H349.867v-17.067h145.067V460.8z M494.933,426.667H349.867V409.6h145.067V426.667z M494.933,392.533H349.867v-17.067h145.067V392.533z M494.933,358.4H349.867 v-17.067h145.067V358.4z M494.933,324.267H349.867V307.2h68.267c4.693,0,8.533-3.84,8.533-8.533 c0-24.747,17.92-42.667,42.667-42.667c4.693,0,8.533-3.84,8.533-8.533V128c0-4.693-3.84-8.533-8.533-8.533 c-24.747,0-42.667-17.92-42.667-42.667c0-4.693-3.84-8.533-8.533-8.533h-68.267V51.2h145.067V324.267z"/> <path style="fill:#4f9263;" d="M162.133,85.333v204.8h-60.245c-3.584-26.965-23.723-47.104-50.688-50.688V136.021 c26.965-3.584,47.104-23.723,50.688-50.688C101.888,85.333,162.133,85.333,162.133,85.333z"/> <path style="fill:#328307;" d="M34.133,128v119.467c0,4.693,3.84,8.533,8.533,8.533c24.747,0,42.667,17.92,42.667,42.667 c0,4.693,3.84,8.533,8.533,8.533h68.267v17.067H17.067V51.2h145.067v17.067H93.867c-4.693,0-8.533,3.84-8.533,8.533 c0,24.747-17.92,42.667-42.667,42.667C37.973,119.467,34.133,123.307,34.133,128z"/> <g> <rect x="17.067" y="341.333" style="fill:#4f9263;" width="145.067" height="17.067"/> <rect x="17.067" y="375.467" style="fill:#4f9263;" width="145.067" height="17.067"/> <rect x="17.067" y="409.6" style="fill:#4f9263;" width="145.067" height="17.067"/> <rect x="17.067" y="443.733" style="fill:#4f9263;" width="145.067" height="17.067"/> </g> <rect x="179.2" y="341.333" style="fill:#6e6f2a;" width="153.6" height="119.467"/> <g> <rect x="349.867" y="443.733" style="fill:#4f9263;" width="145.067" height="17.067"/> <rect x="349.867" y="409.6" style="fill:#4f9263;" width="145.067" height="17.067"/> <rect x="349.867" y="375.467" style="fill:#4f9263;" width="145.067" height="17.067"/> <rect x="349.867" y="341.333" style="fill:#4f9263;" width="145.067" height="17.067"/> </g> <path style="fill:#328307;" d="M494.933,51.2v273.067H349.867V307.2h68.267c4.693,0,8.533-3.84,8.533-8.533 c0-24.747,17.92-42.667,42.667-42.667c4.693,0,8.533-3.84,8.533-8.533V128c0-4.693-3.84-8.533-8.533-8.533 c-24.747,0-42.667-17.92-42.667-42.667c0-4.693-3.84-8.533-8.533-8.533h-68.267V51.2H494.933z"/> <path style="fill:#4f9263;" d="M460.8,136.021v103.424c-26.965,3.584-47.104,23.723-50.688,50.688h-60.245v-204.8h60.245 C413.696,112.299,433.835,132.437,460.8,136.021z"/> <rect x="179.2" y="51.2" style="fill:#c5bf7c;" width="153.6" height="273.067"/> </g>
</svg>